<mxfile host="65bd71144e">
    <diagram id="_4QF2G1vZHrWDjTrrEXW" name="PÃ¡gina-1">
        <mxGraphModel dx="572" dy="457" grid="1" gridSize="10" guides="1" tooltips="1" connect="1" arrows="1" fold="1" page="1" pageScale="1" pageWidth="827" pageHeight="1169" math="0" shadow="0">
            <root>
                <mxCell id="0"/>
                <mxCell id="1" parent="0"/>
                <mxCell id="2" style="edgeStyle=none;html=1;fontSize=20;" edge="1" parent="1" source="3" target="5">
                    <mxGeometry relative="1" as="geometry"/>
                </mxCell>
                <mxCell id="3" value="&lt;font color=&quot;#000000&quot; style=&quot;font-size: 22px;&quot;&gt;inicio&lt;/font&gt;" style="ellipse;whiteSpace=wrap;html=1;fillColor=#60a917;fontColor=#ffffff;strokeColor=#2D7600;" vertex="1" parent="1">
                    <mxGeometry x="310" y="10" width="170" height="90" as="geometry"/>
                </mxCell>
                <mxCell id="4" style="edgeStyle=none;html=1;fontSize=20;" edge="1" parent="1" source="5" target="8">
                    <mxGeometry relative="1" as="geometry"/>
                </mxCell>
                <mxCell id="5" value="&lt;font color=&quot;#000000&quot;&gt;num&lt;/font&gt;" style="shape=parallelogram;perimeter=parallelogramPerimeter;whiteSpace=wrap;html=1;fixedSize=1;fontSize=22;fillColor=#6a00ff;fontColor=#ffffff;strokeColor=#3700CC;" vertex="1" parent="1">
                    <mxGeometry x="302.5" y="180" width="185" height="70" as="geometry"/>
                </mxCell>
                <mxCell id="6" style="edgeStyle=none;html=1;entryX=0.415;entryY=0.022;entryDx=0;entryDy=0;entryPerimeter=0;fontSize=20;" edge="1" parent="1" source="8" target="9">
                    <mxGeometry relative="1" as="geometry">
                        <Array as="points">
                            <mxPoint x="168" y="420"/>
                        </Array>
                    </mxGeometry>
                </mxCell>
                <mxCell id="7" style="edgeStyle=none;html=1;entryX=0.5;entryY=0;entryDx=0;entryDy=0;fontSize=20;" edge="1" parent="1" source="8" target="10">
                    <mxGeometry relative="1" as="geometry">
                        <Array as="points">
                            <mxPoint x="630" y="420"/>
                        </Array>
                    </mxGeometry>
                </mxCell>
                <mxCell id="8" value="&lt;font style=&quot;font-size: 17px;&quot;&gt;par = num % 2 = 0&lt;/font&gt;&lt;span style=&quot;font-size: 20px;&quot;&gt;&lt;br&gt;&lt;/span&gt;" style="rhombus;whiteSpace=wrap;html=1;fontSize=22;fillColor=#f0a30a;fontColor=#000000;strokeColor=#BD7000;" vertex="1" parent="1">
                    <mxGeometry x="315" y="340" width="160" height="160" as="geometry"/>
                </mxCell>
                <mxCell id="9" value="&lt;font color=&quot;#000000&quot;&gt;par&lt;/font&gt;" style="rounded=0;whiteSpace=wrap;html=1;fontSize=20;fillColor=#d80073;fontColor=#ffffff;strokeColor=#A50040;" vertex="1" parent="1">
                    <mxGeometry x="72.5" y="550" width="230" height="90" as="geometry"/>
                </mxCell>
                <mxCell id="10" value="&lt;div style=&quot;text-align: left;&quot;&gt;&lt;font color=&quot;#000000&quot;&gt;&lt;span style=&quot;background-color: rgb(162, 0, 37);&quot;&gt;impar&lt;/span&gt;&lt;/font&gt;&lt;/div&gt;" style="rounded=0;whiteSpace=wrap;html=1;fontSize=20;fillColor=#A20025;fontColor=#ffffff;strokeColor=#6F0000;" vertex="1" parent="1">
                    <mxGeometry x="510" y="550" width="240" height="90" as="geometry"/>
                </mxCell>
                <mxCell id="12" value="&lt;font color=&quot;#030303&quot;&gt;FIN&lt;/font&gt;" style="ellipse;whiteSpace=wrap;html=1;fontSize=20;fillColor=#008a00;fontColor=#ffffff;strokeColor=#005700;" vertex="1" parent="1">
                    <mxGeometry x="294" y="840" width="216" height="110" as="geometry"/>
                </mxCell>
                <mxCell id="13" value="" style="edgeStyle=orthogonalEdgeStyle;endArrow=classic;html=1;rounded=0;endSize=8;startSize=8;fontSize=20;elbow=vertical;" edge="1" parent="1" target="12">
                    <mxGeometry width="50" height="50" relative="1" as="geometry">
                        <mxPoint x="170" y="640" as="sourcePoint"/>
                        <mxPoint x="402" y="830" as="targetPoint"/>
                        <Array as="points">
                            <mxPoint x="170" y="760"/>
                            <mxPoint x="402" y="760"/>
                        </Array>
                    </mxGeometry>
                </mxCell>
                <mxCell id="14" value="" style="endArrow=none;html=1;fontSize=20;elbow=vertical;" edge="1" parent="1">
                    <mxGeometry width="50" height="50" relative="1" as="geometry">
                        <mxPoint x="400" y="760" as="sourcePoint"/>
                        <mxPoint x="640" y="640" as="targetPoint"/>
                        <Array as="points">
                            <mxPoint x="530" y="760"/>
                            <mxPoint x="640" y="760"/>
                        </Array>
                    </mxGeometry>
                </mxCell>
                <mxCell id="16" value="&lt;font style=&quot;font-size: 18px; background-color: rgb(0, 204, 0);&quot; color=&quot;#ffffff&quot;&gt;True&lt;/font&gt;" style="text;html=1;strokeColor=none;fillColor=none;align=center;verticalAlign=middle;whiteSpace=wrap;rounded=0;labelBackgroundColor=#A20025;fontColor=#000000;" vertex="1" parent="1">
                    <mxGeometry x="220" y="380" width="80" height="30" as="geometry"/>
                </mxCell>
                <mxCell id="17" value="&lt;font style=&quot;font-size: 18px; background-color: rgb(255, 0, 0);&quot; color=&quot;#ffffff&quot;&gt;False&lt;/font&gt;" style="text;html=1;strokeColor=none;fillColor=none;align=center;verticalAlign=middle;whiteSpace=wrap;rounded=0;labelBackgroundColor=#A20025;fontColor=#000000;" vertex="1" parent="1">
                    <mxGeometry x="515" y="380" width="60" height="30" as="geometry"/>
                </mxCell>
            </root>
        </mxGraphModel>
    </diagram>
</mxfile>